<?xml version="1.0" encoding="utf-8"?>
<!-- Generator: Adobe Illustrator 24.2.0, SVG Export Plug-In . SVG Version: 6.00 Build 0)  -->
<svg version="1.1" id="Layer_1" xmlns="http://www.w3.org/2000/svg" xmlns:xlink="http://www.w3.org/1999/xlink" x="0px" y="0px"
	 viewBox="0 0 1000 1000" style="enable-background:new 0 0 1000 1000;" xml:space="preserve">
<style type="text/css">
	.st0{fill:none;}
	.st1{fill:#4B7BBE;}
	.st2{fill:url(#SVGID_1_);}
</style>
<g>
	<path class="st0" d="M413.5,621.2h173l41.7-243.7H367.5L413.5,621.2z"/>
	<path class="st1" d="M112.7,127.6C98,127.4,86,139.1,85.8,153.8c0,1.5,0.1,3.1,0.3,4.6l112.7,684c2.9,17.3,17.8,30,35.3,30.1h540.5
		c13.1,0.2,24.4-9.3,26.5-22.3l112.7-691.7c2.3-14.5-7.5-28.1-22-30.4c-1.5-0.2-3.1-0.4-4.6-0.3L112.7,127.6z M587.1,621.9H414.6
		l-46.7-244h261L587.1,621.9z"/>
	
		<linearGradient id="SVGID_1_" gradientUnits="userSpaceOnUse" x1="203.175" y1="921.2677" x2="202.969" y2="921.0508" gradientTransform="matrix(1996.6343 0 0 -1480.3047 -404731.125 1364202.875)">
		<stop  offset="0.18" style="stop-color:#325BA9"/>
		<stop  offset="1" style="stop-color:#4B7BBE"/>
	</linearGradient>
	<path class="st2" d="M877.3,377.5H628.4l-41.8,243.9H414.3L210.8,862.9c6.5,5.6,14.7,8.7,23.2,8.7h540.2
		c13.1,0.2,24.4-9.3,26.5-22.3L877.3,377.5z"/>
</g>
</svg>
