<?xml version="1.0" encoding="utf-8"?>
<!-- Generator: Adobe Illustrator 23.0.1, SVG Export Plug-In . SVG Version: 6.00 Build 0)  -->
<svg version="1.1" id="Layer_1" xmlns="http://www.w3.org/2000/svg" xmlns:xlink="http://www.w3.org/1999/xlink" x="0px" y="0px"
	 viewBox="0 0 1000 1000" style="enable-background:new 0 0 1000 1000;" xml:space="preserve">
<style type="text/css">
	.st0{fill:#171717;}
</style>
<g transform="matrix(2.791226 0 0 2.791226 71.368826 91.588681)">
	<circle class="st0" cx="150.8" cy="146.4" r="42.4"/>
	<path class="st0" d="M150.8-31.9C67.8-31.9-2,24.9-21.8,101.8c-0.2,0.7-0.3,1.4-0.3,2.1c0,4.7,3.8,8.5,8.5,8.5h71.9
		c3.3,0,6.3-1.9,7.7-5c0,0,0.1-0.2,0.2-0.3c14.8-32,47.2-54.2,84.7-54.2c51.6,0,93.4,41.8,93.4,93.4s-41.8,93.4-93.4,93.4
		c-37.6,0-69.9-22.2-84.7-54.2c0-0.1-0.2-0.3-0.2-0.3c-1.4-3-4.4-5-7.7-5h-71.9c-4.7,0-8.5,3.8-8.5,8.5c0,0.7,0.1,1.4,0.3,2.1
		C-2,267.8,67.8,324.6,150.8,324.6c98.5,0,178.4-79.8,178.4-178.3S249.4-31.9,151-31.9L150.8-31.9z"/>
</g>
</svg>
