<?xml version="1.0" encoding="utf-8"?>
<!-- Generator: Adobe Illustrator 23.0.1, SVG Export Plug-In . SVG Version: 6.00 Build 0)  -->
<svg version="1.1" id="Layer_1" xmlns="http://www.w3.org/2000/svg" xmlns:xlink="http://www.w3.org/1999/xlink" x="0px" y="0px"
	 viewBox="0 0 1000 1000" style="enable-background:new 0 0 1000 1000;" xml:space="preserve">
<style type="text/css">
	.st0{fill-rule:evenodd;clip-rule:evenodd;fill:#E2452A;}
	.st1{fill-rule:evenodd;clip-rule:evenodd;fill:#F36E2C;}
	.st2{fill-rule:evenodd;clip-rule:evenodd;fill:#FAA327;}
</style>
<g>
	<path class="st0" d="M500,959.9L683.8,394H316.2L500,959.9z"/>
	<path class="st1" d="M500,959.9L316.2,394H58.6L500,959.9z"/>
	<path class="st2" d="M58.6,394L2.7,566.1c-5.1,15.7,0.5,32.9,13.8,42.6L500,959.9L58.6,394z"/>
	<path class="st0" d="M58.6,394h257.6L205.5,53.4c-5.7-17.5-30.5-17.5-36.2,0L58.6,394z"/>
	<path class="st1" d="M500,959.9L683.8,394h257.6L500,959.9z"/>
	<path class="st2" d="M941.4,394l55.8,171.9c5.1,15.7-0.5,32.9-13.8,42.6L500,959.9L941.4,394z"/>
	<path class="st0" d="M941.4,394H683.8L794.5,53.3c5.7-17.5,30.5-17.5,36.2,0L941.4,394z"/>
</g>
</svg>
