<?xml version="1.0" encoding="utf-8"?>
<!-- Generator: Adobe Illustrator 24.2.0, SVG Export Plug-In . SVG Version: 6.00 Build 0)  -->
<svg version="1.1" id="katman_1" xmlns="http://www.w3.org/2000/svg" xmlns:xlink="http://www.w3.org/1999/xlink" x="0px" y="0px"
	 viewBox="0 0 1000 1000" style="enable-background:new 0 0 1000 1000;" xml:space="preserve">
<style type="text/css">
	.st0{fill:#D33833;}
	.st1{fill:#EF3D3A;}
	.st2{fill:#231F20;}
	.st3{fill:#F0D6B7;}
	.st4{fill:#335061;}
	.st5{fill:#6D6B6D;}
	.st6{fill:#DCD9D8;}
	.st7{fill:#F7E4CD;}
	.st8{fill:#49728B;}
	.st9{fill:#FFFFFF;}
	.st10{stroke:#D33833;stroke-width:10.8864;stroke-miterlimit:23.9808;}
	.st11{fill:#81B0C4;}
	.st12{fill:#1D1919;}
</style>
<g>
	<path class="st0" d="M730.1,426.2c0,130.3-103.3,235.9-230.7,235.9S268.6,556.5,268.6,426.2c0-130.3,103.3-235.9,230.7-235.9
		C626.8,190.3,730.1,296,730.1,426.2"/>
	<path class="st1" d="M278.1,484.7c0,0-16.7-246,210.1-253.1l-15.8-26.4l-123,41.3l-35.2,40.4l-30.7,58.8L266,414.1l5.2,45.8"/>
	<path class="st2" d="M341.4,265.3c-40.4,41.5-65.5,98.6-65.5,161.9S301,547.5,341.4,589c40.6,41.5,96.2,67,158,67
		c61.8,0,117.4-25.5,158-67c40.4-41.5,65.5-98.6,65.5-161.9c0-63.3-25.1-120.4-65.5-161.9c-40.6-41.3-96.2-67-158-67
		C437.8,198.3,381.9,223.8,341.4,265.3L341.4,265.3z M331.1,598.9c-43-43.9-69.6-104.8-69.6-171.7s26.6-127.8,69.6-171.9
		c43-43.9,102.5-71.3,168.2-71.3c65.7,0,125.2,27.4,168.2,71.3c43,43.9,69.6,104.8,69.6,171.9c0,67-26.6,127.8-69.6,171.7
		c-43,44.1-102.5,71.3-168.2,71.3C433.7,670.2,374.1,643,331.1,598.9L331.1,598.9z"/>
	<path class="st3" d="M596.5,427.5l-35.2,5.2l-47.4,5.4l-30.7,0.7l-30-0.9l-22.9-7.1l-20.3-22l-15.8-44.8l-3.5-9.7l-21-7.1
		L357.4,327l-8.7-29l9.7-25.5l22.9-8l18.4,8.7l8.7,19.4l10.6-1.7l3.5-4.5l-3.5-20.3l-0.9-25.5l5.2-35.2l-0.2-20.1l16-25.7l28.1-20.3
		l49.1-21l54.5,8l47.4,34.2l22,35.2l14.1,25.5l3.5,63.3l-10.6,54.5l-19.4,48.4l-18.2,25.9"/>
	<path class="st4" d="M566.7,579.5l-125.6,5.2v21l10.6,73.9l-5.2,6.1l-87.8-30l-6.1-10.6l-8.7-99.4l-20.7-59.5l-4.5-14.1l70.3-48.4
		l22-8.7l19.4,23.8l16.7,14.9l19.4,6.1l8.7,2.6l10.6,45.8l8,9.7l20.3-7.1l-14.1,27.4l76.3,36.1L566.7,579.5"/>
	<path class="st5" d="M358.3,272.9l22.9-8l18.4,8.7l8.7,19.4l10.6-1.7l2.6-10.6l-5.2-20.3l5.2-48.4l-4.5-26.4l15.8-18.4l34.2-27.2
		l-9.7-13.2l-48.4,23.8l-20.3,15.8L377.5,191L360,214.8l-5.2,28.1L358.3,272.9"/>
	<path class="st6" d="M394.4,190.3c0,0,13.2-32.6,65.9-48.4c52.7-15.8,2.6-11.4,2.6-11.4l-57.1,22l-22,22l-9.7,17.5L394.4,190.3
		 M368,266.8c0,0-18.4-61.6,51.9-70.3l-2.6-10.6l-48.4,11.4l-14.1,45.8l3.5,30L368,266.8"/>
	<path class="st7" d="M396.1,348.4l11.5-11.2c0,0,5.2,0.6,6.1,6.7c0.9,6.1,3.5,61.6,41.3,91.4c3.5,2.8-28.1-4.5-28.1-4.5L398.9,387
		 M557.8,331.7c0,0,2-26.6,9.3-24.6c7.3,2,7.3,9.3,7.3,9.3S556.8,327.6,557.8,331.7 M630.7,234.2c0,0-14.5,3-15.8,15.8
		c-1.3,12.8,15.8,2.6,18.4,1.7 M524.5,235.1c0,0-19.4,2.6-19.4,14.9c0,12.3,22,11.3,28.1,6.1 M405,292.3c0,0-33.3-20.3-36.8-0.9
		c-3.5,19.4-11.4,33.3,5.2,53.6l-11.4-3.5l-10.6-27.2l-3.5-26.4l20.3-21l22.9,1.7l13.2,10.6L405,292.3 M420.8,236.8
		c0,0,14.9-77.4,90.4-92.3c62.1-12.3,94.9,2.6,107.2,16.7c0,0-55.4-65.9-108.1-45.8c-52.7,20.3-91.4,57.1-90.4,80.8
		C421.4,236.8,420.8,236.8,420.8,236.8 M624.6,170c0,0-25.5-0.9-26.4,22c0,0,0,3.5,1.7,7.1c0,0,20.3-22.9,32.6-10.6"/>
	<path class="st7" d="M513.1,201.4c0,0-4.5-35-34.2-14.7c-19.4,13.2-17.5,31.6-14.1,35.2c3.5,3.5,2.6,10.6,5.2,5.8
		c2.6-4.8,1.9-20.7,11.5-25.1C491,198.1,507,193.3,513.1,201.4"/>
	<path class="st8" d="M430.5,438.9l-82.6,36.8c0,0,34.2,136.2,16.7,178.4l-12.3-4.5l-0.9-51.9l-22.9-98.2l-9.7-27.2l86.2-58.1
		L430.5,438.9 M438.9,514.2l11.7,14.3v52.7h-14c0,0-1.7-36.8-1.7-41.3c0-4.5,1.7-20.3,1.7-20.3 M439.2,589.2l-39.6,1.7l11.4,8
		l28.1,4.5"/>
	<path class="st4" d="M574.5,580.5l32.6-0.9l8,80.8l-33.3,4.5L574.5,580.5"/>
	<path class="st4" d="M583.3,580.5l49.1-2.6c0,0,20.3-51,20.3-53.6c0-2.6,17.5-73.9,17.5-73.9l-39.6-41.3l-8-7.1l-21,21v81.7
		L583.3,580.5"/>
	<path class="st8" d="M605.2,574.3l-30.7,6.1L579,605c11.3,5.2,30.7-8.7,30.7-8.7 M606.2,420.5l61.6,45.8l1.7-21l-46.5-43
		L606.2,420.5"/>
	<path class="st9" d="M469.8,753.5l-18.2-73.9l-9.1-54.5l-1.5-40.4l82.4-4.5h51.2l-4.7,92.3l8,71.3l-0.9,13.2l-66.8,5.2L469.8,753.5
		"/>
	<path class="st6" d="M563.2,579.5c0,0-4.5,91.4,8.7,156.5c0,0-26.4,16.7-64.9,21l73.9-2.6l8.7-5.2l-10.6-144l-2.8-30.9"/>
	<path class="st9" d="M616.4,653.4l34.2-9.7l64.9-3.5l9.7-30l-17.5-51.9l-20.3-2.6l-28.1,8.7l-26.8,13.2l-14.3-2.6l-11.2,4.5"/>
	<path class="st6" d="M615.8,635.7c0,0,22.9-10.6,26.4-9.7l-9.7-48.4l11.4-4.5c0,0,8,45.8,8,51c0,0,49.1,2.6,53.6,2.6
		c0,0,10.6-20.3,8-41.3l9.7,28.1l0.9,15.8l-14.1,21l-15.8,3.5l-26.4-0.9l-8.7-11.4l-30.7,4.5l-9.7,3.5"/>
	<path class="st9" d="M581.2,573.4l-19.4-49.1l-20.3-29c0,0,4.5-12.3,10.6-12.3h20.3l19.4,7.1l-1.7,32.6L581.2,573.4"/>
	<path class="st6" d="M585.1,556.7c0,0-24.6-47.4-24.6-54.5c0,0,4.5-10.6,10.6-8c6.1,2.6,19.4,9.7,19.4,9.7v-16.7l-30-6.1l-20.3,2.6
		l34.2,81.1l7.1,0.9"/>
	<path class="st9" d="M477.6,440.7l-24.4-2.6l-22.9-7.1v8l11.2,12.3l35.2,15.8"/>
	<path class="st6" d="M438.3,443.3c0,0,27.2,11.4,36.1,8.7l0.9,10.6l-24.6-5.2l-14.9-10.6L438.3,443.3"/>
	<path class="st0" d="M616.4,486c-14.9-0.4-28.5-2.2-40.2-5.6c0.7-4.8-0.7-9.5,0.6-13c3.3-2.4,8.7-2.4,13.8-3
		c-4.3-2-10.4-3-15.3-1.7c-0.2-3.3-1.7-5.4-2.6-8c8.4-3,28.1-22.5,39.3-16.2c5.4,3.2,7.6,20.7,8,29.4C620.3,475,619.2,482,616.4,486
		"/>
	<path class="st10" d="M616.4,486c-14.9-0.4-28.5-2.2-40.2-5.6c0.7-4.8-0.7-9.5,0.6-13c3.3-2.4,8.7-2.4,13.8-3
		c-4.3-2-10.4-3-15.3-1.7c-0.2-3.3-1.7-5.4-2.6-8c8.4-3,28.1-22.5,39.3-16.2c5.4,3.2,7.6,20.7,8,29.4C620.3,475,619.2,482,616.4,486
		L616.4,486z"/>
	<path class="st0" d="M545.1,461.6c0,1.1,0,2.2-0.2,3.3c-4.7,3-12.1,3-17.3,5.6c7.4,0.4,13.4,2.2,18.6,4.7c-0.2,2.8-0.2,5.8-0.4,8.6
		c-8.6,5.8-16.4,14.5-26.4,20.1c-4.8,2.6-21.4,9.3-26.4,8c-2.8-0.7-3.2-4.3-4.3-7.6c-2.4-7.1-8-18.6-8.6-29.4
		c-0.6-13.6-2-36.5,12.7-33.7c11.9,2.2,25.7,7.6,34.8,12.7C533.4,457.1,536.6,460.8,545.1,461.6"/>
	<path class="st10" d="M545.1,461.6c0,1.1,0,2.2-0.2,3.3c-4.7,3-12.1,3-17.3,5.6c7.4,0.4,13.4,2.2,18.6,4.7
		c-0.2,2.8-0.2,5.8-0.4,8.6c-8.6,5.8-16.4,14.5-26.4,20.1c-4.8,2.6-21.4,9.3-26.4,8c-2.8-0.7-3.2-4.3-4.3-7.6
		c-2.4-7.1-8-18.6-8.6-29.4c-0.6-13.6-2-36.5,12.7-33.7c11.9,2.2,25.7,7.6,34.8,12.7C533.4,457.1,536.6,460.8,545.1,461.6
		L545.1,461.6z"/>
	<path class="st0" d="M553.5,477.8c-1.3-7.4-2.8-9.5-2.2-16C571.2,448.6,574.7,484.5,553.5,477.8"/>
	<path class="st10" d="M553.5,477.8c-1.3-7.4-2.8-9.5-2.2-16C571.2,448.6,574.7,484.5,553.5,477.8L553.5,477.8z"/>
	<path class="st1" d="M582.2,483.7c0,0-6.1-8.7-1.7-11.4c4.5-2.6,8.7,0,11.4-4.5c2.6-4.5,0-7.1,0.9-12.3c0.9-5.2,5.2-6.1,9.7-7.1
		c4.5-0.9,16.7-2.6,18.4,1.7l-5.2-15.8l-10.6-3.5l-33.3,19.4l-1.7,9.7v19.4 M489.9,512.7c-1.1-13.8-2.2-27.4-3.3-41.1
		c-1.9-20.5,4.8-16.9,22.7-16.9c2.8,0,16.7,3.2,17.7,5.2c4.8,9.9-8,7.6,5.6,15.1c11.4,6.1,31.6-3.7,27-17.7
		c-2.6-3.2-13.4-0.9-17.3-3l-20.7-10.6c-8.7-4.5-28.8-11.2-38.1-4.8c-23.6,16,1.5,56.2,9.9,72.9"/>
	<path class="st2" d="M513.1,201.4c-24-5.6-35.9,10-43.2,26.2c-6.5-1.5-3.9-10.4-2.2-14.9c4.3-11.7,21.6-27.5,35.7-25.3
		C509.4,188.2,517.6,193.8,513.1,201.4 M629.8,228.6h1.1c5.4,11.2,10,23.1,16.9,33.1c-4.7,10.8-34.6,20.1-34.2,1.1
		c6.5-2.8,17.7-0.6,23.4-4.3C633.7,249.5,629,241.6,629.8,228.6 M525.2,229c5.2,9.5,6.9,19.4,14.1,26.4c3.4,3.2,9.7,7.1,6.5,16
		c-0.7,2-6.1,6.7-9.3,7.6c-11.3,3.3-38,0.7-29-13.6c9.5,0.4,22.1,6.1,29.2-0.7C531.4,256.2,521.7,239,525.2,229 M625.5,324.6
		c-17.1,11-36.3,23.1-64.6,20.3c-6-5.2-8.4-16.9-2.4-24.6c3,5.2,1.1,14.9,9.7,16.4c16,2.8,34.6-9.9,46.1-14.1
		c7.1-12.1-0.6-16.4-7.1-24.2c-13.2-15.8-30.7-35.5-30.1-59.2c5.4-3.9,5.8,6,6.5,7.6c6.9,16,24.2,36.7,36.7,50.4
		c3.2,3.3,8.2,6.7,8.7,8.9C630.7,312.5,624.8,320.3,625.5,324.6 M398.9,313.1c-5.4-3.2-6.7-16.6-13-16.9c-9.1-0.6-7.4,17.5-7.4,28.1
		c-6.1-5.6-7.3-23.1-2.8-32c-5.2-2.6-7.4,2.8-10.4,4.7C369.1,269.9,404.8,284.4,398.9,313.1 M636.3,336c-8,15.3-19.4,32-42.8,32.6
		c-0.6-4.8-0.9-12.5,0-15.4C611.6,351.2,622.7,342.1,636.3,336 M523.9,345.8c14.9,7.8,42.4,8.7,62.9,8.2c1.1,4.5,1.1,10,1.1,15.4
		C561.7,370.6,530.8,364.1,523.9,345.8 M521.1,360.4c10.4,26,46,23.1,75.9,22.3c-1.3,3.3-4.1,7.4-7.8,8.7
		c-9.7,3.9-36.1,6.9-49.5-0.2c-8.4-4.5-14-14.7-18.6-20.7C519.1,367.8,507.9,360.5,521.1,360.4"/>
	<path class="st11" d="M624.2,503.8c-12.1,20.8-23.8,42.2-38.1,60.5c6-17.7,8.6-47.4,9.5-70.1C608.2,488.2,619,495.4,624.2,503.8"/>
	<path class="st2" d="M689.5,578.6c-13.6,2.8-23.1,16-36.5,15.1C660.5,583.5,673.1,579,689.5,578.6 M695.5,599.8
		c-11.2,1.1-24.2,3-35.4,2C665.5,593.7,686,596.7,695.5,599.8 M699.4,618.3c-12.5,0.2-27.9,0-39.8-0.9
		C666.6,609.7,691.4,614.5,699.4,618.3"/>
	<path class="st6" d="M600.8,668.5c1.9,15.6,8,31.4,7.3,48.6c-6.9,2.2-10.8,4.3-20.1,4.3c-0.6-14.5-2.6-36.8-2-50.8
		C590.3,670.9,597,667.4,600.8,668.5"/>
	<path class="st3" d="M580.7,437.8c-6.3,4.1-11.5,9.1-17.7,13.6c-13.4,0.7-20.7-0.9-30.3-8.6c0.2-0.6,1.1-0.4,1.1-1.1
		C548.1,448,566.3,439.1,580.7,437.8"/>
	<path class="st11" d="M505.9,535.1c3.9-16.9,19.4-25.9,33.3-35.2c14.3,18.2,23.1,41.7,32.7,64.4C549,557.4,525.8,546.4,505.9,535.1
		"/>
	<path class="st2" d="M585.9,670.7c-0.6,14,1.3,36.1,2,50.8c9.3,0,13.2-2,20.1-4.3c0.7-17.1-5.4-32.9-7.3-48.6
		C597,667.4,590.3,670.9,585.9,670.7z M442.2,591.8c6.1,56,14.9,102.9,31.1,152.6c35.9,11,79.1,11.9,110.9,2
		c-5.8-27.9-3.3-62-6.7-91.9c-2.6-22.5-1.3-45-4.8-67.9C534.1,578.6,479.8,584.8,442.2,591.8L442.2,591.8z M581.8,587
		c-0.4,24,1.1,47.8,3,71.8c9.3-1.3,15.4-2.2,24-4.3c-2.8-23.1-2.4-49.3-8.2-69.8C594.1,584.9,588.3,584.8,581.8,587L581.8,587z
		 M628.5,583.1c-4.5-0.9-9.5,0-13.6,0c2,19.5,6.7,41.1,8.4,61.8c6.5,0.2,10-3,15.4-3.9C639.1,622.9,637.2,598,628.5,583.1
		L628.5,583.1z M699.4,647.8c13.8-3.3,22.3-20.1,18.4-37.4c-2.6-11.5-7.1-33.5-12.1-40.9c-3.5-5.4-13.4-12.7-21.4-7.6
		c-12.8,8.2-35.4,10.6-44.7,20.5c4.7,15.6,6.1,36.8,8,56.6c16,0.9,35.5-4.5,48.9,1.3c-9.3,3-21.2,3-29.2,7.4
		C674.1,650.8,689.3,650.3,699.4,647.8L699.4,647.8z M571.7,564.3c-9.7-22.7-18.4-46.1-32.7-64.4c-14,9.3-29.2,18.2-33.3,35.2
		C525.8,546.4,549,557.4,571.7,564.3L571.7,564.3z M595.5,494.1c-0.9,22.7-3.5,52.5-9.5,70.1c14.3-18.4,26.1-39.6,38.1-60.5
		C619,495.4,608.2,488.2,595.5,494.1L595.5,494.1z M568.6,484.7c-5.4-0.6-10,6.3-17.1,3.3c-1.7,1.9-3.2,3.7-4.8,5.6
		c15.6,19,22.9,45.8,35,67.9c6.5-21.4,5.8-44.7,7.3-67.9C579.9,494,574.9,485.2,568.6,484.7L568.6,484.7z M551.3,461.8
		c-0.6,6.5,0.9,8.6,2.2,16C574.7,484.5,571.2,448.6,551.3,461.8z M527.6,453.9c-9.1-5-22.9-10.4-34.8-12.7
		c-14.7-2.8-13.2,20.1-12.7,33.7c0.6,10.8,6.1,22.1,8.6,29.4c1.1,3.3,1.5,6.9,4.3,7.6c5,1.1,21.8-5.4,26.4-8
		c10-5.4,17.9-14.1,26.4-20.1c0.2-2.8,0.2-5.8,0.4-8.6c-5.2-2.6-11-4.3-18.6-4.7c5-2.6,12.7-2.6,17.3-5.6c0-1.1,0-2.2,0.2-3.4
		C536.6,460.8,533.4,457.1,527.6,453.9L527.6,453.9z M440.2,438.1c-7.6,7.8,21.4,18.2,30.5,18.8c0-4.8,2.8-9.5,2.2-13
		C461.9,442,447.6,443.3,440.2,438.1L440.2,438.1z M534,441.7c0,0.7-0.9,0.6-1.1,1.1c9.9,7.6,17.1,9.3,30.3,8.6
		c6-4.3,11.4-9.5,17.7-13.6C566.3,439.1,548.1,448,534,441.7L534,441.7z M619.9,467.7c-0.4-8.6-2.6-26.2-8-29.4
		c-11.2-6.5-30.9,13.2-39.3,16.2c0.9,2.6,2.4,4.7,2.6,8c5-1.3,11-0.4,15.3,1.7c-5,0.6-10.4,0.6-13.8,3c-1.1,3.5,0.4,8.2-0.6,13
		c11.7,3.3,25.3,5,40.2,5.6C619.2,482,620.3,475,619.9,467.7L619.9,467.7z M427.3,445.6c-2.4-1.7-18.6-22.7-20.8-21.8
		c-29.2,11.5-56.6,31.4-80.9,50.4c23.3,50.1,32.7,111.3,34.4,170.3c26.6,12.5,50.1,30.5,86.3,32.4c-4.3-29.6-8-56.2-10.4-84.1
		c-9.1-3.9-22.1,0.2-30.7-1.1c0-10.2,13-4.5,14.1-11.3c0.7-5.2-7.3-5.6-4.7-13.8c6.7,2.4,10.2,7.8,17.3,9.9
		c6.5-14.1,0-39.3,0.9-51.2c0.2-2.2,1.1-12.3,6.1-10.6c4.5,1.5-0.2,27,0.2,38.1c0.4,10.4-1.3,20.3,3,26.8c35-4.8,70.5-7.8,108.5-8.9
		c-8.4-3.5-18.2-6.9-29-13c-6-3.3-24.4-10.2-26-15.8c-2.8-8.9,7.1-13.6,8.7-21.2c-17.7,9.7-21-9.3-25.3-22.5
		c-3.7-12.1-6-21.2-6.9-28.1C456.7,462.1,440.4,454.9,427.3,445.6L427.3,445.6z M604.5,426.2c24.4-11.7,28.8,44.1,19.2,62.2
		c1.5,5.4,6.5,7.4,8.6,12.3c-13.6,24.4-28.7,47.1-42.6,71.1c10.2-6.5,25.1-1.1,37.2-6c4.5-1.7,7.6-11.9,11-20.1
		c9.3-22.3,19-50.6,23.3-71.8c0.9-4.8,3.7-15.4,3-19.7c-1.1-7.8-11.5-13.6-16.9-18.2c-9.9-8.9-16-16.6-26.4-24.9
		C616.8,417.1,607.8,421.2,604.5,426.2L604.5,426.2z M371.7,210.2c-11.5,12.8-9.1,36.7-7.8,53.8c21-13.2,48.8,1.1,48.6,23.4
		c10-0.2,3.7-12.5,1.9-20.5c-6-25.9,10-53.8,0.7-77.4C397,191,382.3,198.3,371.7,210.2L371.7,210.2z M454.7,135.9
		c-26.2,7.4-59.9,26.6-70.7,50.2c8.4-1.3,14.1-5.4,22.3-6c3.2-0.2,7.3,1.3,10.8,0.4c7.1-1.9,13.2-17.9,18.6-23.8
		c5.2-5.8,11.5-8.4,15.8-13.6c2.8-1.3,6.9-1.3,7.1-5.4C457.5,136.5,456.2,135.6,454.7,135.9L454.7,135.9z M591.5,143
		c-27.4-15.4-73.5-27-102.5-12.5c-23.4,11.7-55.1,31.1-65.9,55.5c10,23.6-3,45.2-3.9,69.2c-0.4,12.8,6,23.8,6.5,37.8
		c-3.5,5.8-14,6.3-21.2,6c-2.4-12.3-6.7-26.1-19.4-27.5c-17.9-2-31.1,12.8-31.8,28.3c-0.9,18.2,14,48.4,35.2,46.3
		c8.2-0.7,10.2-8.9,19.2-8.9c4.8,9.7-7.4,12.7-8.7,19.5c-0.4,1.9,0.9,8.7,1.9,12.1c3.9,15.8,12.5,36.5,20.8,48.6
		c10.8,15.4,31.8,17.7,54.5,19.2c4.1-8.7,19-8,28.7-5.8c-11.7-4.7-22.5-15.8-31.4-25.7c-10.2-11.4-20.7-23.4-21.2-38.3
		c19.5,27,35.5,50.6,70.9,62.5c26.8,8.9,58.1-4.1,78.7-18.6c8.6-6,13.6-15.6,19.7-24.2c22.7-32.7,33.3-79.3,31.1-124.5
		c-0.9-18.6-0.9-37.2-7.3-49.7c-6.5-13-28.7-24.9-41.7-13c-2.4-12.8,10.8-20.7,26.2-16C618.8,168.9,607.3,152,591.5,143L591.5,143z
		 M642.4,563.7c21.4-10.6,61.2-28.5,74.4,0c5,10.6,10.8,28.3,13.2,39.3c3.5,15.3-3.9,47.6-19.7,52.7c-14,4.5-30.1,4.3-46.9,0.9
		c-2-1.7-4.1-4.5-5.8-7.4c-11.9-0.4-23.3,0.6-32.6,5.6c0.9,8.9-5,10.2-10.8,12.1c-4.1,16.6,8.4,38.1,5.4,53
		c-2,10.8-15.3,12.5-24.9,14.3c-0.4,6,0.4,11,1.1,16c-2.2,8.2-12.1,12.8-21.6,14c-31.1,3.7-78.1,5.4-107.9-5.4
		c-8.4-20.5-14.9-45.2-21.8-68.5c-29,3.2-52.7-12.5-74.8-22.9c-7.6-3.5-18.2-5.6-21.2-11.7c-2.8-6-1.7-17.3-2.4-27.9
		c-1.7-27.4-3.3-53.8-10.4-81.7c-3.2-12.7-8.9-23.6-12.8-35.7c-3.7-11.2-10-25.1-11.7-36.3c-2.4-16.6,13.2-17.5,23.1-24.7
		c15.4-11.2,27.5-17.3,44.3-27.4c5-3,19.9-10.4,21.6-14c3.4-6.9-5.8-16.6-8.2-22c-3.9-8.6-6-15.8-6.5-24.2
		c-14-2.2-24.7-10.6-31.1-19.9c-10.6-15.6-18.1-44.5-8.7-66.2c0.7-1.7,4.3-5.2,4.8-7.8c1.1-5.2-2-12.1-2.2-17.7
		c-0.9-28.5,4.8-53,24-61.6c7.8-31.1,35.7-41.3,62-56.8c9.9-5.8,20.7-9.5,31.8-13.6c40-14.7,101.6-11.9,134.9,13.2
		c14.1,10.6,36.7,33.1,44.7,49.5c21.4,43,19.7,115,4.8,167.5c-2,7.1-4.8,17.3-8.9,25.9c-2.8,6-11.5,17.7-10.6,22.9
		c1.1,5.4,20.1,19.7,24.2,23.6c7.3,7.1,21.2,16.4,22.3,25.3c1.3,9.5-4.1,22.5-6.9,31.6C661.6,508.3,652.7,536.4,642.4,563.7
		L642.4,563.7z"/>
	<path class="st7" d="M500.1,352.4c1.1-1.5,7.4-3.9,16.4,0.4c0,0-10.6,1.7-9.7,19.4l-4.5-0.9C502.5,371.3,497.9,355.3,500.1,352.4"
		/>
	<path class="st12" d="M577.1,503.4c0,2.6-2.2,4.8-4.8,4.8c-2.6,0-4.8-2.2-4.8-4.8c0-2.6,2.2-4.8,4.8-4.8
		C575.1,498.6,577.1,500.8,577.1,503.4 M582,526c0,2.6-2.2,4.8-4.8,4.8c-2.6,0-4.8-2.2-4.8-4.8s2.2-4.8,4.8-4.8
		C579.9,521.1,582,523.2,582,526"/>
	<g>
		<path class="st2" d="M328.5,810.7c-1.5,0.2-2.8,0.4-3.9,0.6c-1.1,0.2-2.2,0.4-3.7,0.7c-1.7,0.4-2.6,1.1-3,2.2
			c-0.4,1.1-0.7,2.2-0.7,3.7v45.4c0,4-0.9,7.9-2.6,11.5c-1.7,3.5-3.9,6.3-6.9,8.7c-3,2.2-6.3,4.1-10,5.2c-3.7,1.1-7.6,1.9-11.7,1.9
			c-7.3,0-13-1.7-17.5-5.2c-4.5-3.5-6.7-8.2-6.7-14.3c0-3.5,0.9-6.5,3-8.9c2-2.4,4.8-3.5,8.4-3.5c3.3,0,6,0.9,8,3c2,2,3,4.5,3,7.3
			c0,2.4-0.9,4.8-2.6,6.9c-1.7,2-3.7,4.1-6,5.8v0.7c0.4,0.7,1.1,1.5,2.2,2c1.1,0.6,2.4,0.7,3.5,0.7c4.7,0,8.4-1.7,11-5
			c2.6-3.3,3.9-8.4,3.9-15.1v-46.5c0-1.3-0.2-2.6-0.6-3.5c-0.4-0.9-1.5-1.7-3.2-2.4c-1.1-0.6-2.6-0.9-4.3-1.3
			c-1.7-0.4-3-0.6-4.1-0.7V806H328v4.7L328.5,810.7L328.5,810.7z M397.4,874.7c-1.3,2.2-3,4.3-4.8,6.3c-1.9,2-4.1,3.5-6.5,5
			c-2.6,1.5-5.2,2.6-7.8,3.3c-2.6,0.7-5.8,1.1-9.1,1.1c-5.8,0-10.6-0.7-14.9-2.4c-4.1-1.7-7.6-3.7-10.2-6.5c-2.8-2.8-4.7-6-6.1-9.7
			c-1.4-3.9-2-8-2-12.1c0-3.9,0.7-7.8,2.2-11.3c1.5-3.5,3.5-6.9,6.1-9.7s6-5,10-6.7c4.3-1.7,8.8-2.6,13.4-2.6c5.4,0,9.9,0.7,13.4,2
			c3.5,1.3,6.3,3.2,8.6,5.4c2.2,2.2,3.7,4.8,4.8,7.8c0.9,3,1.5,6.1,1.5,9.5v3.7h-39.3c0,8,1.5,14,4.7,18c3,4.1,8,6.1,14.5,6.1
			c3.7,0,6.9-0.9,9.9-3c3-2,5.5-4.6,7.4-7.6L397.4,874.7L397.4,874.7z M375.2,852.5c0-2.2-0.2-4.7-0.4-7.1c-0.2-2.4-0.6-4.5-1.3-6
			c-0.7-1.9-1.5-3.2-2.8-4.1c-1.1-0.9-2.6-1.3-4.3-1.3c-3,0-5.4,1.5-7.1,4.5c-1.9,3-2.8,7.8-3,14.3L375.2,852.5L375.2,852.5z
			 M479.4,888.4h-35v-4.3c0.7,0,1.7-0.2,2.6-0.4c1.1-0.2,1.9-0.4,2.4-0.6c0.7-0.4,1.3-1.1,1.7-1.9c0.4-0.7,0.6-2,0.6-3.5v-27.2
			c0-3.9-0.7-6.9-2.2-8.9c-1.5-2-3.5-3-6.5-3c-1.5,0-3,0.2-4.3,0.7c-1.3,0.4-2.6,1.1-3.9,2c-1.1,0.7-2,1.5-2.8,2.4
			c-0.7,0.7-1.3,1.5-1.7,2.2v31.1c0,1.3,0.2,2.4,0.6,3.3c0.4,0.9,1.1,1.7,1.9,2c0.6,0.4,1.3,0.7,2.2,0.9l2.8,0.6v4.3h-35.4v-4.3
			c0.9,0,1.9-0.2,3-0.4c0.9-0.2,1.9-0.4,2.6-0.6c1.3-0.4,2-1.1,2.6-2c0.4-0.9,0.7-2,0.7-3.5v-33.9c0-1.1-0.4-2.4-0.9-3.5
			c-0.6-1.1-1.5-2-2.4-2.8c-0.7-0.4-1.5-0.9-2.6-1.1c-1.1-0.4-2.3-0.6-3.5-0.6v-4.3l27.7-1.5l0.9,0.9v8.4h0.2
			c1.4-1.1,2.7-2.3,3.9-3.5c1.4-1.2,2.8-2.3,4.3-3.3c1.5-0.9,3.3-1.7,5.6-2.4c2.2-0.7,4.8-0.9,7.4-0.9c6.3,0,11,1.9,14.1,5.4
			c3.2,3.5,4.7,8.4,4.7,14.3v28.5c0,1.5,0.2,2.6,0.6,3.3c0.4,0.9,1.3,1.5,2.4,2c0.6,0.2,1.3,0.6,2.2,0.7c0.9,0.2,1.9,0.4,3.2,0.6
			v4.5H479.4L479.4,888.4z M559.5,888.4h-27.4c-2.9-5.2-6-10.2-9.3-15.1c-2.8-4.1-5.4-8-7.8-11.4l-3.3,3v12.7c0,1.3,0.2,2.6,0.6,3.3
			c0.4,0.9,1.1,1.5,2.4,2c0.7,0.4,1.5,0.6,2.4,0.7c0.9,0.2,1.9,0.4,2.8,0.4v4.3h-36.1v-4.3c0.9,0,1.9-0.2,3-0.4
			c0.9-0.2,1.9-0.4,2.6-0.6c1.3-0.4,2-1.1,2.6-2c0.4-0.9,0.7-2,0.7-3.5v-64.8c0-1.3-0.4-2.6-0.9-3.9c-0.6-1.3-1.3-2.4-2.4-3.2
			c-0.7-0.4-1.9-0.9-3.3-1.1c-1.5-0.4-2.8-0.6-4.1-0.6v-4.3l28.8-1.5l0.9,0.9v59.9c2.8-2.6,6.1-5.6,9.7-8.9c3.5-3.3,6.5-6.1,8.6-8.4
			c1.3-1.3,2-2.2,2-3c0.2-0.7,0.2-1.1,0.2-1.3c0-0.7-0.6-1.3-1.9-1.7c-1.3-0.4-3-0.9-5.6-1.3v-4.1h29.4v4.1c-3.9,1.1-6.9,2-8.9,3
			c-2,0.9-4.3,2.2-6.7,3.7c-1.6,1.1-3.1,2.2-4.7,3.3c-1.5,1.1-3.2,2.6-5.2,4.3c3.7,5.6,7.3,10.6,10.4,15.3c3.2,4.7,6.5,9.7,10,14.9
			c1.1,1.9,2.6,3,4.5,3.7c1.9,0.6,3.5,0.9,5.4,1.1v4.5L559.5,888.4L559.5,888.4z M596.7,888.4H560v-4.3c0.9,0,2-0.2,3-0.4
			c0.9-0.2,1.9-0.4,2.4-0.6c1.3-0.4,2-1.1,2.6-2c0.6-0.9,0.7-2,0.7-3.5v-33.9c0-1.3-0.4-2.6-0.9-3.5c-0.5-1-1.3-1.9-2.2-2.4
			c-0.7-0.4-1.7-0.9-3.2-1.3c-1.5-0.4-2.8-0.7-3.9-0.7v-4.3L587,830l0.9,0.9v46.1c0,1.3,0.4,2.4,0.9,3.5c0.6,0.9,1.5,1.7,2.4,2
			c0.7,0.4,1.7,0.7,2.6,0.9c0.9,0.2,1.9,0.4,3,0.6v4.3L596.7,888.4L596.7,888.4z M588.3,809.3c0,3-1.1,5.4-3.3,7.4
			c-2.2,2-5,3.2-8,3.2c-3.2,0-5.8-1.1-8.2-3.2c-2.2-2-3.3-4.7-3.3-7.4c0-3,1.1-5.4,3.3-7.6c2.2-2,5-3.2,8.2-3.2c3.2,0,5.8,1.1,8,3.2
			C587.2,803.8,588.3,806.4,588.3,809.3L588.3,809.3z M678.7,888.4h-35v-4.3c0.7,0,1.7-0.2,2.6-0.4c1.1-0.2,1.9-0.4,2.4-0.6
			c0.7-0.4,1.3-1.1,1.7-1.9c0.4-0.7,0.6-2,0.6-3.5v-27.2c0-3.9-0.7-6.9-2.2-8.9c-1.5-2-3.5-3-6.5-3c-1.5,0-3,0.2-4.3,0.7
			c-1.3,0.6-2.6,1.1-3.9,2c-1.1,0.7-2,1.5-2.8,2.4c-0.7,0.7-1.3,1.5-1.7,2.2v31.1c0,1.3,0.2,2.4,0.6,3.3c0.4,0.9,1.1,1.7,1.9,2
			c0.6,0.4,1.3,0.7,2.2,0.9l2.8,0.6v4.3h-35.4v-4.3c0.9,0,1.9-0.2,3-0.4c0.9-0.2,1.9-0.4,2.6-0.6c1.3-0.4,2-1.1,2.6-2
			c0.4-0.9,0.7-2,0.7-3.5v-33.9c0-1.1-0.4-2.4-0.9-3.5c-0.6-1.1-1.5-2-2.4-2.8c-0.7-0.4-1.5-0.9-2.6-1.1c-1.1-0.4-2.3-0.6-3.5-0.6
			v-4.3l27.7-1.5l0.9,0.9v8.4h0.2c1.4-1.1,2.7-2.3,3.9-3.5c1.4-1.2,2.8-2.3,4.3-3.3c1.5-0.9,3.3-1.7,5.6-2.4
			c2.2-0.7,4.8-0.9,7.4-0.9c6.3,0,11,1.9,14.1,5.4c3.2,3.5,4.7,8.4,4.7,14.3v28.5c0,1.5,0.2,2.6,0.6,3.3c0.4,0.9,1.3,1.5,2.4,2
			c0.6,0.2,1.3,0.6,2.2,0.7c0.9,0.2,1.9,0.4,3.2,0.6v4.5H678.7L678.7,888.4z M710.9,890.5c-3.7,0-7.4-0.6-11-1.7
			c-3.5-1.1-6.3-2.2-8.4-3.5l-1.7,3.9h-4.5l-0.7-21.6h4.3c0.6,1.7,1.5,3.7,3,6c1.3,2.2,3,4.1,4.7,6c1.9,1.7,4,3.2,6.3,4.5
			c2.4,1.1,4.8,1.9,7.4,1.9c3.5,0,6.1-0.7,7.8-2c1.7-1.3,2.6-3.5,2.6-6.3c0-1.5-0.4-2.8-1.1-3.9c-0.7-0.9-1.9-1.9-3.2-2.6
			c-1.5-0.7-3.2-1.5-5-2c-1.9-0.6-4.1-1.1-6.7-2c-2.6-0.7-4.8-1.5-6.7-2.4c-1.9-0.7-3.9-2-5.8-3.7c-1.7-1.5-3.2-3.3-4.1-5.4
			c-1.1-2-1.5-4.7-1.5-7.6c0-5.4,2.2-9.9,6.9-13.2c4.7-3.3,10.6-5,18-5c3.5,0,6.7,0.4,9.7,1.1c3,0.7,5.4,1.5,7.4,2.4l1.3-3.3h4.5
			l0.9,19.7h-4.1c-1.3-4.1-3.7-7.4-6.9-10.4c-3.3-3-6.9-4.5-10.6-4.5c-3,0-5.4,0.6-7.1,1.9c-1.7,1.3-2.6,3-2.6,5.2
			c0,3,1.3,5,3.7,6.3c2.4,1.3,6,2.6,10.4,3.7c6.9,1.9,11.9,4.3,15.3,7.3c3.2,3.2,4.8,7.1,4.8,11.7c0,6.3-2.4,11.4-7.4,14.7
			C725.4,888.6,718.9,890.5,710.9,890.5L710.9,890.5z"/>
	</g>
</g>
</svg>
