<svg viewBox="0 0 16 16" fill="none" xmlns="http://www.w3.org/2000/svg">
  <path
    d="M6.39268 5.99967C6.54942 5.55412 6.85878 5.17841 7.26599 4.9391C7.67319 4.69978 8.15195 4.6123 8.61747 4.69215C9.08299 4.772 9.50523 5.01402 9.8094 5.37536C10.1136 5.7367 10.2801 6.19402 10.2793 6.66634C10.2793 7.99967 8.27935 8.66634 8.27935 8.66634M8.33268 11.333H8.33935M14.9993 7.99967C14.9993 11.6816 12.0146 14.6663 8.33268 14.6663C4.65078 14.6663 1.66602 11.6816 1.66602 7.99967C1.66602 4.31778 4.65078 1.33301 8.33268 1.33301C12.0146 1.33301 14.9993 4.31778 14.9993 7.99967Z"
    stroke="currentColor" stroke-linecap="round" stroke-linejoin="round"/>
</svg>
